<svg xmlns="http://www.w3.org/2000/svg" width="22" height="15" viewBox="0 0 22 15">
    <path fill="#000" fill-opacity=".999" fill-rule="evenodd" d="M0 1.25a.5.5 0 0 0 .031.164l3.25 9.25A.5.5 0 0 0 3.75 11h3v2.25c0 .424-.326.75-.75.75H2.75a.5.5 0 1 0 0 1H6c.96 0 1.75-.79 1.75-1.75V11H18a.5.5 0 0 0 .5-.5V9.25h3a.5.5 0 0 0 .5-.5v-6.5a.5.5 0 0 0-.5-.5h-3V.5A.5.5 0 0 0 18 0H1.25C.566 0 0 .566 0 1.25zm1.351-.15H17.4v8.8H7.37a.499.499 0 0 0-.193 0h-3.01L1.12 1.305c.02-.118.105-.207.231-.207zM15 2c-.823 0-1.5.677-1.5 1.5S14.177 5 15 5s1.5-.677 1.5-1.5S15.823 2 15 2zm3.4.75H21v5.5h-2.6v-5.5zM15 2.9c.338 0 .6.261.6.6 0 .338-.262.6-.6.6a.591.591 0 0 1-.6-.6c0-.339.262-.6.6-.6z"></path>
</svg>