<svg width="9px" height="12px" viewBox="0 0 9 12" version="1.1" xmlns="http://www.w3.org/2000/svg" xmlns:xlink="http://www.w3.org/1999/xlink">
    <g id="Arash" stroke="none" stroke-width="1" fill="none" fill-rule="evenodd">
        <g id="Asssets" transform="translate(-645.000000, -147.000000)" fill="#EF4023" fill-rule="nonzero">
            <g id="urgency-element" transform="translate(645.000000, 147.000000)">
                <path d="M7.96248679,5.66916604 L7.95776345,5.66205772 C7.84363784,5.49030597 7.61188845,5.44359075 7.4401367,5.55771636 C7.34413586,5.62150701 7.28297803,5.72606011 7.27442843,5.84100494 C7.22777449,6.46825207 6.82807926,6.8519375 6.46963566,7.00185706 C6.08308518,7.1634637 5.71704848,7.09246831 5.53715451,6.82094976 C5.22384622,6.34822913 5.3773511,6.06933948 5.69944745,5.57697873 C6.04982496,5.04140972 6.52970819,4.30793624 6.10208035,2.98278605 C5.78125366,1.98851121 5.15501051,1.15526109 4.24070299,0.506143111 C3.99774903,0.333673791 3.7389865,0.178880576 3.47163508,0.0460551957 L3.45620729,0.0383916829 C3.27471124,-0.0517636582 3.05449427,0.0222826197 2.96433893,0.203778674 C2.91573227,0.301631072 2.91326022,0.416054314 2.95759539,0.515914675 C3.205628,1.07449414 3.56802997,2.19432024 3.20898888,3.41828745 C2.99068134,4.16252663 2.37823023,4.76118648 1.78591948,5.34018197 C0.948812513,6.15849591 0,7.08594586 0,8.56795025 C0,9.71803668 0.436814241,10.6370729 1.29826888,11.2995995 C1.89062943,11.755129 2.52386817,11.9674362 2.62399737,11.9903254 L2.62399737,11.9903254 C2.65208958,11.9967547 2.68081647,12 2.70963501,12 L6.88640543,12 C6.96631427,12 7.04417878,11.9747441 7.10887419,11.9278408 C8.20959827,11.1299671 8.83036444,10.1641583 8.95396997,9.05720738 C9.11160748,7.64486478 8.40044621,6.32824956 7.96248679,5.66916604 Z" id="Shape"></path>
            </g>
        </g>
    </g>
</svg>