<svg xmlns="http://www.w3.org/2000/svg" width="20" height="20" viewBox="0 0 20 20">
    <path fill="#000" fill-rule="nonzero" d="M4.756.968v.008c-.002 0 0-.002 0-.008zm0 18.55h-.951V.968A.96.96 0 0 1 4.755 0H15.22c.525 0 .95.444.95.968v18.544h-.951V.968c0 .008-10.464.008-10.464.008v18.542zm0-18.55l-.001.008.001-.008zm0 18.056H15.22V.968c0 .008-10.464.008-10.464.008v18.048zm-.951 0V.968A.96.96 0 0 1 4.755 0H15.22c.525 0 .95.444.95.968v18.056h3.353c.263 0 .476.219.476.488 0 .27-.213.488-.476.488H.476A.482.482 0 0 1 0 19.512c0-.27.213-.488.476-.488h3.329zm9.233-8.167s-.878-1.303-.878-1.8c0-.498.393-.9.878-.9a.89.89 0 0 1 .878.9c0 .497-.878 1.8-.878 1.8z" opacity=".3"></path>
</svg>