<svg xmlns="http://www.w3.org/2000/svg" width="16" height="16" viewBox="0 0 16 16">
    <g fill="none" fill-rule="nonzero">
        <path fill="#FFF" d="M8.113.468L9.897.014a.467.467 0 0 1 .44.118l1.318 1.284a.467.467 0 0 0 .2.115l1.771.497a.467.467 0 0 1 .323.323l.498 1.769c.021.075.06.143.115.2l1.285 1.314a.467.467 0 0 1 .119.442l-.455 1.78a.466.466 0 0 0 0 .23l.455 1.78a.467.467 0 0 1-.119.442l-1.284 1.315a.467.467 0 0 0-.116.2l-.498 1.768a.467.467 0 0 1-.323.323l-1.772.498a.466.466 0 0 0-.199.114l-1.318 1.284a.466.466 0 0 1-.44.118l-1.784-.454a.467.467 0 0 0-.23 0l-1.784.454a.467.467 0 0 1-.44-.118L4.34 14.527a.467.467 0 0 0-.2-.115l-1.771-.498a.466.466 0 0 1-.323-.323l-.498-1.768a.466.466 0 0 0-.116-.2L.15 10.308a.466.466 0 0 1-.119-.441l.455-1.78a.466.466 0 0 0 0-.231L.03 6.076a.467.467 0 0 1 .119-.442L1.434 4.32a.467.467 0 0 0 .115-.2l.498-1.768a.467.467 0 0 1 .323-.323l1.772-.497a.466.466 0 0 0 .2-.115L5.658.132a.466.466 0 0 1 .44-.118l1.784.454c.075.02.155.02.23 0z"></path>
        <path fill="#DA315C" d="M7.333 6c0 .735-.598 1.333-1.333 1.333A1.335 1.335 0 0 1 4.667 6c0-.735.598-1.333 1.333-1.333S7.333 5.265 7.333 6zM5.536 6a.464.464 0 1 0 .929-.001.464.464 0 0 0-.929.001zM10 8.667c.735 0 1.333.598 1.333 1.333s-.598 1.333-1.333 1.333A1.335 1.335 0 0 1 8.667 10c0-.735.598-1.333 1.333-1.333zm0 1.797a.464.464 0 1 0-.001-.929.464.464 0 0 0 .001.929zm.534-4.998a.455.455 0 0 1 0 .643l-4.425 4.425a.453.453 0 0 1-.643 0 .454.454 0 0 1 0-.643l4.425-4.425a.454.454 0 0 1 .643 0z"></path>
    </g>
</svg>