<svg width="22px" height="22px" viewBox="0 0 22 22" version="1.1" xmlns="http://www.w3.org/2000/svg" xmlns:xlink="http://www.w3.org/1999/xlink">
    <!-- Generator: Sketch 52.3 (67297) - http://www.bohemiancoding.com/sketch -->
    <title>checkmark</title>
    <desc>Created with Sketch.</desc>
    <g id="Page-2" stroke="none" stroke-width="1" fill="none" fill-rule="evenodd">
        <g id="new-icon-set-(exportable)" transform="translate(-121.000000, -698.000000)" fill="#000000">
            <path d="M132,720 C129.061263,720 126.299684,718.856 124.221263,716.778737 C122.142842,714.701474 121,711.938737 121,709.001158 C121,706.062421 122.144,703.300842 124.221263,701.222421 C126.298526,699.144 129.061263,698 132,698 C134.938737,698 137.700316,699.144 139.778737,701.222421 C141.857158,703.300842 143,706.062421 143,709.001158 C143,711.939895 141.856,714.701474 139.778737,716.778737 C137.701474,718.856 134.938737,720 132,720 L132,720 Z M132,699.157895 C137.427053,699.157895 141.842105,703.572947 141.842105,709 C141.842105,714.427053 137.427053,718.842105 132,718.842105 C126.572947,718.842105 122.157895,714.427053 122.157895,709 C122.157895,703.572947 126.572947,699.157895 132,699.157895 Z M129.684211,713.631579 L129.681895,713.631579 C129.830105,713.631579 129.978316,713.576 130.091789,713.462526 L138.197053,705.357263 C138.422842,705.131474 138.422842,704.764421 138.197053,704.538632 C137.971263,704.312842 137.604211,704.312842 137.378421,704.538632 L129.683053,712.234 L126.619263,709.170211 C126.393474,708.944421 126.026421,708.944421 125.800632,709.170211 C125.574842,709.396 125.574842,709.763053 125.800632,709.988842 L129.274316,713.462526 C129.387789,713.574842 129.536,713.631579 129.684211,713.631579 Z" id="checkmark"></path>
        </g>
    </g>
</svg>