<svg xmlns="http://www.w3.org/2000/svg" width="16" height="16" viewBox="0 0 16 16"><g fill="none"><path fill="#F5A623" d="M8.113.468L9.897.014a.467.467 0 01.44.118l1.318 1.284a.467.467 0 00.2.115l1.771.497a.467.467 0 01.323.323l.498 1.769c.021.075.06.143.115.2l1.285 1.314a.467.467 0 01.119.442l-.455 1.78a.466.466 0 000 .23l.455 1.78a.467.467 0 01-.119.442l-1.284 1.315a.467.467 0 00-.116.2l-.498 1.768a.467.467 0 01-.323.323l-1.772.498a.466.466 0 00-.199.114l-1.318 1.284a.466.466 0 01-.44.118l-1.784-.454a.467.467 0 00-.23 0l-1.784.454a.467.467 0 01-.44-.118L4.34 14.527a.467.467 0 00-.2-.115l-1.771-.498a.466.466 0 01-.323-.323l-.498-1.768a.466.466 0 00-.116-.2L.15 10.308a.466.466 0 01-.119-.441l.455-1.78a.466.466 0 000-.231L.03 6.076a.467.467 0 01.119-.442L1.434 4.32a.467.467 0 00.115-.2l.498-1.768a.467.467 0 01.323-.323l1.772-.497a.466.466 0 00.2-.115L5.658.132a.466.466 0 01.44-.118l1.784.454c.075.02.155.02.23 0z"></path><path fill="#FFF" d="M7.333 6c0-.735-.598-1.333-1.333-1.333S4.667 5.265 4.667 6 5.265 7.333 6 7.333 7.333 6.735 7.333 6zM5.536 6a.464.464 0 11.929.001A.464.464 0 015.536 6zM10 8.667c-.735 0-1.333.598-1.333 1.333s.598 1.333 1.333 1.333 1.333-.598 1.333-1.333S10.735 8.667 10 8.667zm0 1.797a.464.464 0 11.001-.929.464.464 0 01-.001.929zm.534-4.998a.454.454 0 00-.643 0L5.466 9.891a.454.454 0 10.643.643l4.425-4.425a.455.455 0 000-.643z"></path></g></svg>